<svg id="Grupo_20" data-name="Grupo 20" xmlns="http://www.w3.org/2000/svg" xmlns:xlink="http://www.w3.org/1999/xlink" width="132.495" height="56.419" viewBox="0 0 132.495 56.419">
  <defs>
    <clipPath id="clip-path">
      <rect id="Rectángulo_1013" data-name="Rectángulo 1013" width="132.495" height="56.419" fill="none"/>
    </clipPath>
  </defs>
  <g id="Grupo_19" data-name="Grupo 19" clip-path="url(#clip-path)">
    <path id="Trazado_33" data-name="Trazado 33" d="M414.314,41.946c0-.022.008-.044.012-.065a29.149,29.149,0,0,0,.459-5.759,13.27,13.27,0,0,1,6.677-6.73,5.877,5.877,0,0,0,6.094,3.583,6.606,6.606,0,0,0,1.735-.375c1.7-.628,2.566-1.827,2.157-2.985a3.868,3.868,0,0,0-.883-1.453,2.972,2.972,0,0,0,.765-.921,3.222,3.222,0,0,0-.133-3.013,2.745,2.745,0,0,0-1.825-1.574,2.886,2.886,0,0,0-.819-.079,2.408,2.408,0,0,0,0-1.223,2,2,0,0,0-1.383-1.333c-1.385-.446-3.381.28-4.748,1.726a6.385,6.385,0,0,0-1.539,5.837,13.809,13.809,0,0,0-6.4,5.288c-.046-.281-.1-.56-.151-.836A17.722,17.722,0,0,0,411.6,25.4l8.035-6.423h0a2.29,2.29,0,0,0,.358-3.218l-6.02-7.531a2.289,2.289,0,0,0-3.218-.359l-5.979,4.78A22.314,22.314,0,0,1,407.155,8.2c2.048-2.992,1.288-6.065-.467-7.438a3.677,3.677,0,0,0-5.2.757c-1.458,1.637-1.844,4.632-1.148,8.9.19,1.168.435,2.266.666,3.182-.843-.427-1.86-.908-2.958-1.351-4.011-1.619-7.017-1.9-8.935-.839a3.677,3.677,0,0,0-1.884,4.909,5.018,5.018,0,0,0,5.063,2.6,7.246,7.246,0,0,0,2.09-.5,22.32,22.32,0,0,1,4.864-1.343l-5.964,4.767a2.292,2.292,0,0,0-.359,3.218l6.02,7.531a2.275,2.275,0,0,0,1.535.846,2.327,2.327,0,0,0,.445.007,2.273,2.273,0,0,0,1.238-.494l7.952-6.357a16.076,16.076,0,0,1,2.4,5.974,26.942,26.942,0,0,1-.947,12.767c-.913-2.551-3.159-5.727-8.671-6.7,0,0,.684,8.566,7.559,9.993a54.294,54.294,0,0,1-2.9,6.286.948.948,0,1,0,1.671.9,52.73,52.73,0,0,0,4.056-9.56c3.651,1.363,13.036,3.438,20.807-7.042,0,0-12.269-4.964-19.764,2.749m9.485-18.9a3.911,3.911,0,0,1,2.338-1.26,1.19,1.19,0,0,1,.45.036.507.507,0,0,1,.147.068,3.37,3.37,0,0,1-.872,1.791.948.948,0,0,0,1.29,1.369,2.721,2.721,0,0,1,1.767-.557c.148.037.368.136.573.559a1.491,1.491,0,0,1,.162,1.3,2.34,2.34,0,0,1-1.5.857.964.964,0,0,0-.815,1.054.93.93,0,0,0,1,.83h0a1.451,1.451,0,0,1,1.3,1.086,3.426,3.426,0,0,1-2.532.921,4.025,4.025,0,0,1-4.035-2.779c-1.075-2.784,0-4.5.728-5.278m-11.861-13.7a.394.394,0,0,1,.553.062l2.573,3.219-8.378,6.545-2.744-3.432ZM402.9,2.777a2.355,2.355,0,0,1,1.507-.885,1.568,1.568,0,0,1,1.112.361c1.075.842,1.466,2.836.07,4.874a23.724,23.724,0,0,0-2.863,5.575c-.813-3.388-1.461-8.088.173-9.924m-9.223,13.872c-2.3.913-4.155.093-4.739-1.142-.438-.925-.041-1.814,1.088-2.439a3.474,3.474,0,0,1,1.407-.386c2.343-.191,5.764,1.148,8.311,2.4a23.725,23.725,0,0,0-6.068,1.566m.724,7.22a.394.394,0,0,1,.062-.553l8-6.393,2.731,3.416-8.379,6.545Zm6.573,7.592a.393.393,0,0,1-.553-.062L398,28.364l8.379-6.545,2.6,3.249Zm6.894-10.809,8.379-6.545,2.263,2.831a.394.394,0,0,1-.062.553l-8,6.393Z" transform="translate(-301.584 0)" fill="#f7527a"/>
    <path id="Trazado_34" data-name="Trazado 34" d="M479.561,163.392a1.175,1.175,0,1,1-.9-1.394,1.175,1.175,0,0,1,.9,1.394" transform="translate(-372.02 -126.262)" fill="#f7527a"/>
    <path id="Trazado_35" data-name="Trazado 35" d="M461.279,158.456a1.175,1.175,0,1,1-.9-1.394,1.175,1.175,0,0,1,.9,1.394" transform="translate(-357.769 -122.414)" fill="#f7527a"/>
    <path id="Trazado_36" data-name="Trazado 36" d="M19.178,68.984v17.59H15.65V75.134L10.937,86.575H8.266L3.528,75.134V86.575H0V68.984H4.007L9.6,82.064,15.2,68.984Z" transform="translate(0 -53.775)" fill="#131313"/>
    <rect id="Rectángulo_1011" data-name="Rectángulo 1011" width="3.528" height="17.59" transform="translate(22.656 15.209)" fill="#131313"/>
    <path id="Trazado_37" data-name="Trazado 37" d="M141.493,83.134h-7.006l-1.159,3.352h-3.7l6.326-17.616h4.108l6.326,17.616h-3.73Zm-.958-2.823-2.545-7.359-2.545,7.359Z" transform="translate(-101.045 -53.686)" fill="#131313"/>
    <path id="Trazado_38" data-name="Trazado 38" d="M214.5,68.984h3.7l-2.722,6.351h-2.419Z" transform="translate(-166.091 -53.775)" fill="#131313"/>
    <path id="Trazado_39" data-name="Trazado 39" d="M248.971,85.231a5.435,5.435,0,0,1-2.331-1.814,4.773,4.773,0,0,1-.882-2.8h3.78a2.443,2.443,0,0,0,.769,1.714,2.722,2.722,0,0,0,1.9.63,2.928,2.928,0,0,0,1.941-.592,1.927,1.927,0,0,0,.706-1.55,1.793,1.793,0,0,0-.479-1.285,3.358,3.358,0,0,0-1.2-.794A19.958,19.958,0,0,0,251.2,78.1a21.136,21.136,0,0,1-2.785-1,4.872,4.872,0,0,1-1.84-1.487,4.236,4.236,0,0,1-.769-2.659,4.753,4.753,0,0,1,.781-2.722,4.968,4.968,0,0,1,2.193-1.777,7.98,7.98,0,0,1,3.226-.617,7,7,0,0,1,4.423,1.323,4.905,4.905,0,0,1,1.878,3.692h-3.881a2.018,2.018,0,0,0-.769-1.5,2.9,2.9,0,0,0-1.9-.592,2.449,2.449,0,0,0-1.651.529,1.912,1.912,0,0,0-.617,1.537A1.588,1.588,0,0,0,249.954,74a3.546,3.546,0,0,0,1.159.756q.693.29,1.953.668a20.582,20.582,0,0,1,2.8,1.008,5.031,5.031,0,0,1,1.865,1.512,4.2,4.2,0,0,1,.781,2.646,4.979,4.979,0,0,1-.731,2.621,5.163,5.163,0,0,1-2.142,1.928,7.306,7.306,0,0,1-3.352.718,8.351,8.351,0,0,1-3.314-.63" transform="translate(-191.576 -52.885)" fill="#131313"/>
    <path id="Trazado_40" data-name="Trazado 40" d="M11.879,167.771v3.115H3.859v4.933H10v3.059H3.859v8.13H0V167.771Z" transform="translate(0 -130.783)" fill="#131313"/>
    <path id="Trazado_41" data-name="Trazado 41" d="M70.113,183.573H86.646v3.436H66.255V167.771h3.859Z" transform="translate(-51.648 -130.783)" fill="#131313"/>
    <path id="Trazado_42" data-name="Trazado 42" d="M97.915,179.8a6.809,6.809,0,0,1-2.58-2.531,7.475,7.475,0,0,1,0-7.3,6.815,6.815,0,0,1,2.58-2.531,7.465,7.465,0,0,1,7.154,0,6.766,6.766,0,0,1,2.56,2.531,7.544,7.544,0,0,1,0,7.3,6.741,6.741,0,0,1-2.57,2.531,7.445,7.445,0,0,1-7.145,0m5.775-2.133a3.875,3.875,0,0,0,1.488-1.617,5.306,5.306,0,0,0,.536-2.441,5.244,5.244,0,0,0-.536-2.431,3.825,3.825,0,0,0-1.488-1.6,4.294,4.294,0,0,0-2.2-.556,4.348,4.348,0,0,0-2.213.556,3.807,3.807,0,0,0-1.5,1.6,5.247,5.247,0,0,0-.536,2.431,5.309,5.309,0,0,0,.536,2.441,3.855,3.855,0,0,0,1.5,1.617,4.286,4.286,0,0,0,2.213.566,4.233,4.233,0,0,0,2.2-.566" transform="translate(-73.574 -129.808)" fill="#131313"/>
    <path id="Trazado_43" data-name="Trazado 43" d="M188.5,187.009l-4.244-7.5h-1.819v7.5H178.58V167.771H185.8a8.429,8.429,0,0,1,3.8.786,5.487,5.487,0,0,1,2.357,2.122,5.793,5.793,0,0,1,.785,2.99,5.73,5.73,0,0,1-1.1,3.431,5.665,5.665,0,0,1-3.28,2.109l4.6,7.8Zm-6.063-10.39h3.225a3.221,3.221,0,0,0,2.343-.758,2.821,2.821,0,0,0,.772-2.108,2.693,2.693,0,0,0-.772-2.053,3.3,3.3,0,0,0-2.343-.73h-3.225Z" transform="translate(-139.208 -130.783)" fill="#131313"/>
    <rect id="Rectángulo_1012" data-name="Rectángulo 1012" width="3.859" height="19.238" transform="translate(57.038 36.988)" fill="#131313"/>
    <path id="Trazado_44" data-name="Trazado 44" d="M294.727,185.539a5.943,5.943,0,0,1-2.549-1.984,5.22,5.22,0,0,1-.965-3.059h4.134a2.672,2.672,0,0,0,.841,1.874,2.977,2.977,0,0,0,2.081.689,3.2,3.2,0,0,0,2.122-.648,2.107,2.107,0,0,0,.772-1.7,1.96,1.96,0,0,0-.524-1.405,3.675,3.675,0,0,0-1.309-.868,21.824,21.824,0,0,0-2.163-.7,23.089,23.089,0,0,1-3.046-1.088,5.327,5.327,0,0,1-2.012-1.626,4.632,4.632,0,0,1-.84-2.908,5.2,5.2,0,0,1,.854-2.977,5.435,5.435,0,0,1,2.4-1.943,8.722,8.722,0,0,1,3.528-.675,7.654,7.654,0,0,1,4.837,1.447,5.366,5.366,0,0,1,2.053,4.038h-4.244a2.206,2.206,0,0,0-.841-1.64,3.169,3.169,0,0,0-2.081-.648,2.678,2.678,0,0,0-1.805.579,2.091,2.091,0,0,0-.675,1.681,1.736,1.736,0,0,0,.51,1.281,3.879,3.879,0,0,0,1.268.827q.758.317,2.136.73a22.5,22.5,0,0,1,3.059,1.1,5.5,5.5,0,0,1,2.04,1.654,4.6,4.6,0,0,1,.854,2.894,5.443,5.443,0,0,1-.8,2.866,5.644,5.644,0,0,1-2.342,2.109,7.993,7.993,0,0,1-3.666.785,9.135,9.135,0,0,1-3.624-.689" transform="translate(-227.009 -129.809)" fill="#131313"/>
    <path id="Trazado_45" data-name="Trazado 45" d="M379.079,167.771v3.115h-5.126v16.123h-3.858V170.886h-5.127v-3.115Z" transform="translate(-284.503 -130.783)" fill="#131313"/>
    <path id="Trazado_116" data-name="Trazado 116" d="M414.314,41.946c0-.022.008-.044.012-.065a29.149,29.149,0,0,0,.459-5.759,13.27,13.27,0,0,1,6.677-6.73,5.877,5.877,0,0,0,6.094,3.583,6.606,6.606,0,0,0,1.735-.375c1.7-.628,2.566-1.827,2.157-2.985a3.868,3.868,0,0,0-.883-1.453,2.972,2.972,0,0,0,.765-.921,3.222,3.222,0,0,0-.133-3.013,2.745,2.745,0,0,0-1.825-1.574,2.886,2.886,0,0,0-.819-.079,2.408,2.408,0,0,0,0-1.223,2,2,0,0,0-1.383-1.333c-1.385-.446-3.381.28-4.748,1.726a6.385,6.385,0,0,0-1.539,5.837,13.809,13.809,0,0,0-6.4,5.288c-.046-.281-.1-.56-.151-.836A17.722,17.722,0,0,0,411.6,25.4l8.035-6.423h0a2.29,2.29,0,0,0,.358-3.218l-6.02-7.531a2.289,2.289,0,0,0-3.218-.359l-5.979,4.78A22.314,22.314,0,0,1,407.155,8.2c2.048-2.992,1.288-6.065-.467-7.438a3.677,3.677,0,0,0-5.2.757c-1.458,1.637-1.844,4.632-1.148,8.9.19,1.168.435,2.266.666,3.182-.843-.427-1.86-.908-2.958-1.351-4.011-1.619-7.017-1.9-8.935-.839a3.677,3.677,0,0,0-1.884,4.909,5.018,5.018,0,0,0,5.063,2.6,7.246,7.246,0,0,0,2.09-.5,22.32,22.32,0,0,1,4.864-1.343l-5.964,4.767a2.292,2.292,0,0,0-.359,3.218l6.02,7.531a2.275,2.275,0,0,0,1.535.846,2.327,2.327,0,0,0,.445.007,2.273,2.273,0,0,0,1.238-.494l7.952-6.357a16.076,16.076,0,0,1,2.4,5.974,26.942,26.942,0,0,1-.947,12.767c-.913-2.551-3.159-5.727-8.671-6.7,0,0,.684,8.566,7.559,9.993a54.294,54.294,0,0,1-2.9,6.286.948.948,0,1,0,1.671.9,52.73,52.73,0,0,0,4.056-9.56c3.651,1.363,13.036,3.438,20.807-7.042,0,0-12.269-4.964-19.764,2.749m9.485-18.9a3.911,3.911,0,0,1,2.338-1.26,1.19,1.19,0,0,1,.45.036.507.507,0,0,1,.147.068,3.37,3.37,0,0,1-.872,1.791.948.948,0,0,0,1.29,1.369,2.721,2.721,0,0,1,1.767-.557c.148.037.368.136.573.559a1.491,1.491,0,0,1,.162,1.3,2.34,2.34,0,0,1-1.5.857.964.964,0,0,0-.815,1.054.93.93,0,0,0,1,.83h0a1.451,1.451,0,0,1,1.3,1.086,3.426,3.426,0,0,1-2.532.921,4.025,4.025,0,0,1-4.035-2.779c-1.075-2.784,0-4.5.728-5.278m-11.861-13.7a.394.394,0,0,1,.553.062l2.573,3.219-8.378,6.545-2.744-3.432ZM402.9,2.777a2.355,2.355,0,0,1,1.507-.885,1.568,1.568,0,0,1,1.112.361c1.075.842,1.466,2.836.07,4.874a23.724,23.724,0,0,0-2.863,5.575c-.813-3.388-1.461-8.088.173-9.924m-9.223,13.872c-2.3.913-4.155.093-4.739-1.142-.438-.925-.041-1.814,1.088-2.439a3.474,3.474,0,0,1,1.407-.386c2.343-.191,5.764,1.148,8.311,2.4a23.725,23.725,0,0,0-6.068,1.566m.724,7.22a.394.394,0,0,1,.062-.553l8-6.393,2.731,3.416-8.379,6.545Zm6.573,7.592a.393.393,0,0,1-.553-.062L398,28.364l8.379-6.545,2.6,3.249Zm6.894-10.809,8.379-6.545,2.263,2.831a.394.394,0,0,1-.062.553l-8,6.393Z" transform="translate(-487.583 1383)" fill="#f7527a"/>
  </g>
</svg>
